<?xml version="1.0" standalone="no"?>
<!DOCTYPE svg PUBLIC "-//W3C//DTD SVG 20010904//EN"
 "http://www.w3.org/TR/2001/REC-SVG-20010904/DTD/svg10.dtd">
<svg version="1.0" xmlns="http://www.w3.org/2000/svg"
 width="1024.000000pt" height="1024.000000pt" viewBox="0 0 1024.000000 1024.000000"
 preserveAspectRatio="xMidYMid meet">

<g transform="translate(0.000000,1024.000000) scale(0.100000,-0.100000)"
fill="#000000" stroke="none">
<path d="M0 5120 l0 -5120 5120 0 5120 0 0 5120 0 5120 -5120 0 -5120 0 0
-5120z m2390 2835 l0 -355 -60 0 -60 0 0 355 0 355 60 0 60 0 0 -355z m1912
325 c37 -42 92 -37 126 12 16 22 92 26 92 5 0 -32 -59 -95 -104 -112 -78 -30
-144 -7 -193 65 -33 48 -30 60 15 60 29 0 43 -7 64 -30z m533 5 c30 -30 31
-54 4 -89 -41 -53 -119 -21 -119 48 0 63 69 87 115 41z m1100 0 c30 -30 31
-54 4 -89 -40 -50 -119 -21 -119 44 0 64 70 91 115 45z m630 -330 l0 -355 -62
0 -63 0 0 355 0 355 63 0 62 0 0 -355z m230 330 c30 -30 31 -54 4 -89 -41 -53
-119 -21 -119 48 0 63 69 87 115 41z m247 -186 l3 -211 90 100 90 100 75 1 74
1 -59 -62 c-33 -35 -75 -80 -94 -100 l-33 -36 77 -109 c43 -59 91 -125 107
-145 l29 -38 -78 0 -78 0 -70 106 -69 106 -33 -36 c-31 -33 -33 -40 -33 -106
l0 -70 -60 0 -60 0 0 355 0 355 60 0 60 0 2 -211z m-5654 187 c104 -28 176
-95 206 -193 7 -22 5 -23 -56 -23 -59 1 -64 3 -83 32 -34 54 -69 72 -144 76
-80 5 -129 -15 -179 -72 -40 -46 -55 -102 -50 -191 4 -87 30 -139 87 -180 38
-27 51 -30 116 -30 65 0 78 3 117 30 25 18 52 49 66 75 l22 45 -100 3 -100 3
0 49 0 50 155 0 155 0 0 -180 0 -180 -50 0 -50 0 0 53 0 52 -26 -33 c-14 -18
-49 -45 -77 -59 -135 -69 -324 -6 -399 134 -115 215 -14 479 205 538 67 18
119 18 185 1z m4197 -7 c52 -15 110 -74 124 -126 17 -64 1 -120 -49 -166 -23
-22 -40 -40 -38 -40 83 -40 108 -78 108 -162 0 -80 -25 -120 -99 -157 -54 -28
-58 -28 -238 -28 l-183 0 0 345 0 345 168 0 c92 0 185 -5 207 -11z m2015 -114
l0 -75 60 0 60 0 0 -45 0 -44 -57 -3 -58 -3 -3 -120 c-3 -151 4 -169 71 -173
l47 -3 0 -50 0 -49 -67 0 c-50 0 -77 5 -100 20 -56 34 -66 68 -71 233 l-4 147
-39 0 -39 0 0 45 0 45 40 0 40 0 0 68 c0 38 3 72 7 75 3 4 30 7 60 7 l53 0 0
-75z m-5576 -77 c55 -17 131 -91 145 -143 6 -22 11 -61 11 -87 l0 -48 -180 0
c-99 0 -180 -2 -180 -5 0 -25 35 -78 62 -95 51 -31 112 -27 150 10 26 27 36
30 89 30 32 0 59 -4 59 -8 0 -4 -13 -29 -29 -54 -96 -151 -362 -121 -428 50
-25 64 -23 163 4 223 23 51 83 107 134 125 45 16 112 17 163 2z m844 -25 c57
-35 99 -110 108 -195 l7 -58 -188 0 -187 0 7 -27 c3 -16 20 -41 36 -58 26 -27
36 -30 89 -30 50 0 63 4 87 28 25 23 37 27 87 27 65 0 66 -4 24 -66 -75 -109
-252 -127 -358 -36 -64 54 -85 103 -85 197 0 88 19 137 72 187 79 75 208 89
301 31z m533 9 c55 -29 101 -86 115 -144 l6 -28 -60 0 c-60 0 -61 1 -78 35
-45 95 -170 83 -209 -19 -57 -149 79 -294 181 -192 19 19 34 41 34 50 0 13 12
16 65 16 73 0 76 -4 50 -68 -32 -75 -101 -121 -194 -129 -150 -14 -258 79
-269 230 -12 161 90 277 244 277 48 0 73 -6 115 -28z m525 4 c81 -38 134 -127
134 -228 l0 -38 -180 0 c-198 0 -196 1 -165 -60 22 -43 68 -63 129 -57 38 3
55 11 72 31 20 22 31 26 79 26 62 0 66 -7 36 -56 -44 -72 -128 -109 -228 -101
-127 10 -213 97 -221 223 -7 104 24 181 92 235 68 53 170 63 252 25z m473 14
c19 -5 47 -22 63 -37 l28 -27 0 32 0 32 61 0 60 0 -3 -272 c-3 -257 -4 -275
-25 -313 -40 -76 -98 -111 -201 -121 -79 -9 -157 14 -200 59 -29 30 -52 80
-52 114 0 17 113 9 119 -8 2 -8 17 -26 32 -41 34 -35 97 -38 147 -8 38 24 52
54 52 118 0 38 -2 43 -12 31 -39 -46 -106 -63 -183 -47 -39 8 -61 21 -96 57
-57 56 -72 105 -67 211 2 64 8 85 33 126 50 82 151 121 244 94z m1961 -50 l0
-60 -36 0 c-52 0 -100 -26 -118 -65 -12 -25 -16 -66 -16 -174 l0 -141 -60 0
-60 0 0 245 0 245 60 0 60 0 0 -42 0 -43 19 31 c22 36 73 63 119 64 l32 0 0
-60z m1756 36 c81 -38 134 -127 134 -227 l0 -39 -185 -2 -184 -3 19 -42 c24
-55 66 -77 134 -70 38 3 55 11 72 31 20 23 31 26 83 26 l60 0 -12 -29 c-35
-83 -114 -130 -217 -131 -109 0 -198 56 -237 149 -23 55 -18 163 10 225 55
119 200 169 323 112z m-3266 -231 l0 -245 -60 0 -60 0 0 245 0 245 60 0 60 0
0 -245z m1100 0 l0 -245 -60 0 -60 0 0 245 0 245 60 0 60 0 0 -245z m860 0 l0
-245 -63 0 -63 0 1 245 0 245 63 0 62 0 0 -245z m-4590 -778 l5 -208 88 95 88
96 72 0 72 0 -94 -94 -94 -94 107 -146 c58 -81 106 -149 106 -151 0 -3 -33 -5
-72 -5 l-73 0 -74 112 -74 111 -28 -34 c-26 -31 -28 -41 -29 -111 l0 -78 -60
0 -60 0 0 360 0 361 58 -3 57 -3 5 -208z m760 -149 l0 -358 -60 0 -60 0 0 359
0 359 60 -1 60 -1 0 -358z m248 -1 l2 -358 -61 3 -62 3 1 350 c0 193 1 352 1
355 1 3 27 5 59 5 l57 0 3 -358z m1672 1 l0 -358 -55 0 -55 0 0 35 0 35 -21
-21 c-72 -72 -214 -64 -296 17 -72 72 -88 208 -37 312 59 120 215 158 314 76
l30 -26 0 144 0 143 60 0 60 0 0 -357z m-2168 335 c18 -16 24 -68 10 -89 -4
-6 -18 -17 -30 -23 -31 -16 -75 1 -90 35 -30 64 57 126 110 77z m2398 -3 c38
-38 16 -107 -36 -111 -40 -4 -54 2 -69 30 -36 70 50 136 105 81z m-3805 -14
c58 -27 88 -57 110 -108 28 -69 23 -78 -43 -78 -57 0 -58 0 -71 35 -42 116
-267 79 -237 -40 9 -36 44 -54 156 -81 184 -43 232 -86 232 -205 0 -101 -49
-164 -153 -199 -30 -10 -55 -22 -56 -27 -2 -5 10 -14 27 -20 56 -21 65 -96 15
-129 -33 -22 -121 -21 -146 2 -31 28 -23 37 29 30 59 -8 94 11 76 41 -8 13
-26 19 -63 21 -57 3 -66 18 -21 35 46 17 36 34 -24 40 -93 9 -168 62 -200 139
-30 70 -25 78 48 78 63 0 65 -1 71 -29 17 -80 149 -120 226 -68 61 41 63 104
4 143 -14 9 -72 28 -130 41 -151 35 -204 78 -213 172 -7 81 4 118 53 166 51
52 84 63 185 64 59 1 86 -4 125 -23z m582 -212 c64 -40 103 -113 103 -195 l0
-59 -181 0 -180 0 6 -22 c28 -96 149 -128 216 -57 24 25 34 29 83 29 31 0 56
-2 56 -5 0 -4 -7 -20 -16 -38 -52 -103 -167 -148 -287 -113 -112 33 -169 113
-168 241 0 93 23 149 79 195 56 48 96 60 175 56 53 -3 77 -10 114 -32z m1758
8 c76 -38 115 -102 123 -199 l5 -63 -183 0 -182 0 6 -27 c8 -33 56 -80 91 -89
42 -10 96 5 126 37 24 25 34 29 83 29 31 0 56 -2 56 -5 0 -13 -34 -72 -54 -93
-41 -46 -95 -67 -176 -67 -108 0 -177 42 -226 135 -28 53 -26 181 4 237 25 48
85 101 133 120 47 18 146 10 194 -15z m582 0 c59 -42 68 -76 71 -284 l3 -188
-60 0 -60 0 -3 176 -3 176 -29 25 c-49 41 -117 20 -152 -49 -10 -20 -14 -68
-14 -178 l0 -150 -60 0 -60 0 0 245 0 245 55 0 55 0 0 -37 0 -37 33 31 c17 17
46 35 62 42 46 16 127 8 162 -17z m1303 -32 l0 -60 -39 0 c-44 0 -99 -33 -118
-70 -8 -17 -13 -74 -13 -167 l0 -143 -60 0 -60 0 0 245 0 246 58 -3 57 -3 -1
-39 -2 -40 21 28 c29 40 76 66 120 66 l37 0 0 -60z m-2800 -195 l0 -246 -60 3
-61 3 -2 243 -2 242 63 0 62 0 0 -245z m2392 3 l-2 -243 -60 -3 -60 -3 0 246
0 245 63 0 62 0 -3 -242z m616 222 c29 -27 30 -92 2 -120 -31 -31 -93 -27
-119 6 -44 56 -11 134 58 134 24 0 45 -7 59 -20z m5 -342 c40 -47 4 -128 -58
-128 -61 0 -99 58 -72 110 26 51 93 61 130 18z m-3149 -487 c60 -26 132 -95
161 -152 72 -141 45 -329 -62 -430 -71 -69 -114 -84 -233 -84 -98 0 -109 2
-158 29 -62 35 -101 76 -140 149 -25 48 -27 61 -27 162 0 100 2 115 27 161 50
96 111 147 211 180 55 18 163 11 221 -15z m953 -6 c70 -32 136 -102 164 -173
30 -76 32 -204 5 -282 -27 -78 -122 -172 -196 -194 -173 -51 -345 22 -415 176
-25 54 -29 76 -29 153 0 80 3 97 31 155 17 36 43 78 58 93 98 102 252 131 382
72z m1595 -168 l3 -204 88 99 89 98 64 0 c35 0 64 -4 64 -9 0 -5 -4 -11 -8
-13 -4 -1 -43 -40 -86 -86 l-79 -82 28 -43 c15 -23 61 -88 101 -143 41 -56 74
-104 74 -108 0 -3 -31 -6 -69 -6 l-68 0 -64 96 c-35 53 -67 102 -72 108 -5 7
-18 0 -37 -22 -28 -30 -30 -38 -30 -107 l0 -75 -60 0 -60 0 0 350 0 350 60 0
60 0 2 -203z m4314 36 c-4 -93 -9 -199 -12 -238 l-5 -70 -43 0 -43 0 -7 164
c-3 90 -6 197 -6 238 l0 73 61 0 61 0 -6 -167z m-8083 141 c62 -21 135 -87
163 -149 37 -78 34 -85 -35 -85 -53 0 -59 2 -65 23 -7 30 -64 87 -103 103 -99
42 -224 -14 -267 -118 -18 -43 -21 -136 -5 -191 12 -43 59 -101 99 -122 97
-50 220 -13 264 80 17 34 18 35 76 35 71 0 74 -8 34 -87 -91 -184 -352 -220
-510 -71 -77 72 -99 129 -99 253 0 93 2 105 33 167 37 76 93 129 169 158 61
24 182 26 246 4z m752 -44 l0 -50 -107 0 -108 0 0 -290 0 -290 -60 0 -60 0 0
290 0 290 -100 0 -100 0 0 53 0 52 267 -3 268 -3 0 -49z m4072 -272 c67 -178
124 -331 128 -340 6 -16 0 -18 -57 -18 l-65 0 -27 80 -28 81 -142 -3 -141 -3
-26 -75 -26 -75 -63 -3 c-48 -2 -62 0 -58 10 2 7 58 160 124 340 l119 328 71
0 71 0 120 -322z m-1865 200 l3 -72 58 3 57 2 0 -50 0 -51 -61 0 -61 0 4 -135
c3 -153 4 -155 76 -155 l43 0 -3 -47 -3 -48 -55 -3 c-68 -3 -116 19 -145 68
-17 30 -20 56 -23 183 l-4 147 -39 0 -39 0 0 45 0 45 40 0 40 0 0 70 0 70 55
0 54 0 3 -72z m-231 -68 c5 0 9 -24 9 -54 l0 -53 -52 -5 c-42 -4 -57 -11 -80
-37 l-28 -31 0 -155 0 -155 -60 0 -60 0 0 240 0 240 55 0 55 0 0 -32 0 -32 33
32 c34 33 81 54 105 46 8 -2 18 -4 23 -4z m679 -1 c60 -13 116 -57 138 -109
10 -25 16 -86 20 -207 l5 -173 -62 0 c-58 0 -61 1 -61 25 l0 24 -36 -24 c-44
-30 -90 -39 -148 -31 -138 21 -174 194 -54 258 36 19 58 23 141 23 l99 0 -7
40 c-9 56 -39 85 -87 85 -38 0 -88 -34 -88 -60 0 -6 -23 -10 -55 -10 -49 0
-55 2 -55 20 0 56 58 117 127 136 61 16 62 16 123 3z m2246 -8 c51 -23 90 -72
103 -131 6 -25 11 -109 11 -187 l0 -143 -60 0 c-58 0 -60 1 -60 27 l0 26 -22
-20 c-38 -34 -64 -43 -125 -43 -120 0 -194 97 -148 194 29 60 80 81 199 81
l98 0 -5 38 c-3 21 -13 47 -23 58 -37 41 -124 32 -145 -15 -10 -21 -20 -25
-65 -28 -60 -3 -67 7 -40 60 47 90 180 129 282 83z m551 -2 c30 -15 50 -34 66
-63 20 -37 22 -58 25 -223 l4 -183 -61 0 -61 0 0 160 c0 202 -11 230 -89 230
-16 0 -41 -10 -56 -22 -46 -36 -55 -73 -55 -228 l0 -140 -60 0 -60 0 2 238 3
237 55 -1 c55 -2 55 -2 55 -33 0 -37 2 -38 26 -7 44 56 132 71 206 35z m-907
-49 l0 -60 -40 0 c-23 0 -55 -7 -71 -16 -48 -24 -59 -65 -59 -219 l0 -135 -60
0 -60 0 0 240 0 240 55 0 55 0 0 -42 1 -43 21 29 c30 40 77 66 121 66 l37 0 0
-60z m1220 -180 l0 -240 -60 0 -60 0 0 240 0 240 60 0 60 0 0 -240z m235 78
c31 -90 58 -164 59 -165 1 -2 28 72 60 162 l58 165 64 0 64 0 -16 -37 c-22
-52 -174 -439 -216 -548 l-34 -90 -58 -3 c-53 -3 -58 -1 -51 15 3 10 21 59 39
108 l33 91 -93 224 c-52 124 -94 228 -94 233 0 4 29 7 64 7 l64 0 57 -162z
m626 152 c50 -14 123 -81 143 -131 45 -112 6 -256 -86 -312 -106 -65 -259 -40
-327 53 -61 85 -64 214 -6 302 54 81 169 118 276 88z m519 -50 l0 -60 -45 0
c-35 0 -52 -6 -77 -29 l-33 -29 -5 -154 -5 -153 -58 0 -57 0 0 238 0 237 55 0
55 0 0 -37 0 -38 23 27 c28 35 73 58 115 58 l32 0 0 -60z m185 -313 c49 -71
-45 -157 -105 -97 -38 38 -21 106 30 122 25 8 60 -4 75 -25z m-6157 -833 c49
-56 12 -144 -61 -144 -94 0 -127 122 -44 164 40 20 75 13 105 -20z m-1830 -36
c11 -29 66 -172 122 -318 56 -146 115 -300 131 -342 l28 -78 -84 0 c-47 0 -88
0 -92 -1 -4 0 -20 36 -36 80 l-29 81 -152 0 -153 0 -27 -79 -28 -80 -86 -3
c-48 -2 -88 -2 -90 -2 -2 1 58 168 134 370 75 203 141 381 146 397 10 27 11
27 103 27 l94 0 19 -52z m532 -346 l0 -397 -85 0 -85 0 0 398 0 397 85 0 85 0
0 -398z m1070 323 l0 -75 -160 0 -160 0 0 -85 0 -84 138 -3 137 -3 3 -72 3
-73 -141 0 -140 0 0 -163 0 -163 -85 -1 -85 -2 0 400 0 399 245 0 245 0 0 -75z
m1500 -75 l0 -80 60 0 60 0 0 -65 0 -65 -60 0 -60 0 0 -128 c0 -150 5 -162 73
-169 l47 -6 0 -62 c0 -48 -4 -64 -16 -69 -32 -12 -120 -5 -160 13 -83 38 -104
98 -104 296 l0 125 -40 0 -40 0 0 65 0 65 40 0 40 0 0 80 0 80 80 0 80 0 0
-80z m-800 -150 l0 -80 -40 0 c-53 0 -105 -22 -122 -52 -9 -15 -15 -78 -18
-192 l-5 -170 -78 0 -77 -1 0 278 0 277 65 0 c36 0 68 0 73 0 4 0 6 -19 5 -42
l-2 -42 26 33 c30 39 94 70 141 71 l32 0 0 -80z m363 69 c41 -11 113 -70 121
-97 2 -9 7 -29 10 -44 l6 -28 -69 0 c-61 0 -70 2 -76 20 -21 66 -145 61 -145
-5 0 -32 17 -42 102 -61 125 -27 182 -71 194 -146 14 -83 -21 -149 -100 -191
-60 -32 -203 -32 -263 0 -54 29 -93 81 -100 133 l-6 40 67 0 c63 0 67 -1 77
-27 14 -39 38 -52 92 -53 34 0 52 5 67 20 45 45 12 81 -96 105 -101 22 -149
47 -171 88 -31 60 -16 154 34 199 56 51 168 72 256 47z m-823 -284 l0 -287
-77 4 -78 3 -3 270 c-1 148 -1 274 2 280 2 5 38 11 80 13 l76 3 0 -286z m-850
10 l0 -75 -170 0 -170 0 0 75 0 75 170 0 170 0 0 -75z m844 -738 c-8 -21 -40
-22 -48 -2 -3 8 2 22 11 30 14 14 18 14 30 2 7 -7 11 -21 7 -30z m1806 -227
c0 -183 -1 -190 -20 -190 -12 0 -20 7 -20 17 0 15 -1 15 -19 -1 -28 -25 -83
-31 -119 -12 -84 43 -85 198 -2 241 40 21 82 19 114 -6 l26 -20 0 80 c0 74 2
81 20 81 19 0 20 -7 20 -190z m-4102 77 l3 -97 80 95 c83 99 95 109 125 103
14 -2 2 -20 -50 -80 -77 -88 -78 -68 10 -204 l54 -84 -29 0 c-26 0 -35 10 -82
85 l-52 86 -29 -28 c-24 -23 -28 -34 -28 -85 0 -55 -1 -58 -25 -58 l-25 0 0
186 0 185 23 -3 c21 -3 22 -8 25 -101z m2022 -82 c0 -178 -1 -185 -20 -185
-19 0 -20 7 -20 185 0 178 1 185 20 185 19 0 20 -7 20 -185z m270 0 c0 -178
-1 -185 -20 -185 -19 0 -20 7 -20 185 0 178 1 185 20 185 19 0 20 -7 20 -185z
m120 0 c0 -178 -1 -185 -20 -185 -19 0 -20 7 -20 185 0 178 1 185 20 185 19 0
20 -7 20 -185z m567 169 c7 -19 -20 -49 -36 -40 -6 4 -11 18 -11 32 0 17 5 24
20 24 11 0 23 -7 27 -16z m378 -9 c0 -21 -31 -33 -46 -18 -5 5 -7 17 -3 27 9
24 49 17 49 -9z m-525 -45 c0 -38 2 -40 30 -40 23 0 30 -4 30 -20 0 -16 -7
-20 -30 -20 l-31 0 3 -87 c3 -80 5 -89 26 -98 32 -14 28 -35 -7 -35 -51 0 -61
20 -61 126 0 94 0 94 -25 94 -18 0 -25 5 -25 20 0 15 7 20 25 20 23 0 25 4 25
40 0 33 3 40 20 40 17 0 20 -7 20 -40z m-2530 -128 c0 -105 13 -132 65 -132
52 0 65 27 65 132 0 81 2 88 20 88 19 0 20 -7 20 -131 0 -119 -2 -130 -17
-127 -12 2 -17 11 -15 23 4 19 2 19 -20 -2 -17 -16 -36 -23 -64 -23 -74 1 -94
37 -94 171 0 82 1 89 20 89 18 0 20 -7 20 -88z m290 62 l0 -27 21 27 c25 32
69 36 69 6 0 -13 -7 -20 -20 -20 -12 0 -32 -11 -45 -25 -23 -22 -25 -32 -25
-110 0 -78 -2 -85 -20 -85 -19 0 -20 7 -20 130 0 123 1 130 20 130 15 0 20 -7
20 -26z m180 -65 c0 -109 8 -129 55 -129 60 0 75 25 75 130 0 82 2 90 19 90
19 0 20 -9 23 -130 3 -127 3 -130 -19 -130 -17 0 -20 4 -15 22 l5 22 -28 -22
c-35 -28 -94 -29 -126 -3 -22 18 -24 29 -29 130 -5 110 -5 111 18 111 21 0 22
-3 22 -91z m290 71 l0 -20 20 20 c28 28 84 27 113 -2 l22 -23 22 23 c22 22 64
29 98 16 32 -12 45 -59 45 -159 0 -88 -1 -95 -20 -95 -18 0 -20 7 -20 88 0
102 -14 132 -60 132 -41 0 -50 -23 -50 -129 0 -82 -2 -91 -19 -91 -17 0 -19
10 -23 94 -4 106 -14 126 -64 126 -51 0 -64 -27 -64 -132 0 -81 -2 -88 -20
-88 -19 0 -20 7 -20 130 0 123 1 130 20 130 13 0 20 -7 20 -20z m555 -5 c26
-25 33 -55 14 -55 -7 0 -22 11 -35 25 -26 28 -65 33 -84 10 -23 -27 -7 -48 48
-65 92 -26 115 -85 56 -137 -44 -39 -130 -26 -153 24 -14 31 -14 33 4 33 8 0
25 -11 39 -25 41 -41 102 -24 94 26 -2 19 -13 27 -58 42 -61 19 -80 38 -80 79
0 43 32 68 85 68 35 0 52 -6 70 -25z m256 6 c22 -18 24 -28 27 -130 4 -106 3
-111 -17 -111 -14 0 -19 5 -15 15 8 19 -10 20 -25 1 -31 -37 -107 -27 -137 18
-36 57 19 116 109 116 42 0 47 2 47 22 0 29 -28 58 -57 58 -13 0 -34 -11 -47
-25 -20 -21 -56 -35 -56 -20 0 17 26 55 44 63 36 18 101 14 127 -7z m799 -8
c23 -20 33 -40 37 -70 l6 -43 -102 0 c-57 0 -101 -4 -101 -10 0 -23 24 -59 47
-69 37 -17 62 -13 89 15 15 14 34 24 45 22 16 -3 17 -6 6 -28 -7 -14 -29 -33
-50 -44 -101 -49 -203 49 -168 164 26 87 127 120 191 63z m300 -103 c0 -123
-1 -130 -20 -130 -19 0 -20 7 -20 130 0 123 1 130 20 130 19 0 20 -7 20 -130z
m235 105 c14 -13 25 -29 25 -35 0 -17 -29 -11 -50 10 -24 24 -63 26 -84 4 -25
-24 -4 -50 53 -64 63 -15 83 -37 79 -86 -2 -31 -10 -43 -37 -61 -19 -13 -29
-23 -23 -23 6 0 19 -11 28 -25 16 -24 16 -27 -1 -45 -18 -20 -58 -26 -89 -14
-28 11 -17 26 14 19 23 -5 32 -3 36 10 9 22 0 28 -38 27 l-33 -1 24 20 c19 15
20 19 6 19 -18 0 -75 52 -75 69 0 19 28 12 54 -14 41 -41 102 -24 94 26 -2 19
-14 27 -58 42 -62 20 -80 38 -80 79 0 43 32 68 85 68 35 0 52 -6 70 -25z m145
-105 c0 -123 -1 -130 -20 -130 -19 0 -20 7 -20 130 0 123 1 130 20 130 19 0
20 -7 20 -130z m120 108 l0 -22 20 22 c29 31 92 30 117 -2 l19 -23 28 23 c37
33 85 32 117 -2 22 -23 24 -36 27 -130 4 -98 3 -104 -16 -104 -18 0 -20 9 -24
94 -4 104 -15 126 -59 126 -45 0 -59 -31 -59 -132 0 -81 -2 -88 -20 -88 -18 0
-20 7 -20 88 0 101 -14 132 -59 132 -56 0 -66 -18 -66 -124 0 -93 -1 -96 -22
-96 -23 0 -23 2 -23 130 0 123 1 130 20 130 14 0 20 -7 20 -22z m889 -4 c25
-21 51 -74 51 -106 0 -5 -47 -8 -105 -8 -109 0 -115 -3 -93 -43 28 -53 89 -63
128 -22 24 25 60 34 60 14 0 -6 -13 -23 -28 -39 -81 -80 -212 -20 -212 96 0
108 121 174 199 108z m-2329 -601 l1 -118 55 58 c48 51 104 83 104 59 0 -4
-22 -29 -49 -56 l-49 -48 55 -79 54 -79 -28 0 c-24 0 -34 10 -68 64 -37 59
-41 63 -57 48 -13 -10 -18 -30 -18 -64 0 -41 -3 -48 -20 -48 -19 0 -20 7 -20
190 0 183 1 190 20 190 19 0 20 -7 20 -117z m363 83 c15 -19 27 -37 27 -40 0
-15 -29 -3 -50 19 l-24 25 -27 -26 c-15 -14 -32 -25 -38 -23 -16 6 47 79 67
79 9 0 29 -16 45 -34z m1412 4 c0 -29 -32 -41 -41 -16 -9 24 4 48 23 44 12 -2
18 -12 18 -28z m560 0 c0 -29 -32 -41 -41 -16 -9 24 4 48 23 44 12 -2 18 -12
18 -28z m-4359 -50 c26 -38 50 -70 53 -70 3 0 28 32 54 70 38 55 53 70 73 70
29 0 32 5 -48 -106 l-58 -81 0 -92 c0 -84 -1 -91 -20 -91 -18 0 -20 7 -20 85
l0 86 -58 87 c-80 120 -77 112 -48 112 21 0 35 -14 72 -70z m1654 50 c0 -12
-45 -85 -101 -163 l-101 -142 101 -3 c93 -2 101 -4 101 -22 0 -19 -7 -20 -130
-20 -107 0 -130 3 -130 15 0 8 47 81 104 162 l104 148 -104 3 c-96 2 -104 4
-104 22 0 19 7 20 130 20 124 0 130 -1 130 -20z m1211 9 c125 -42 158 -211 62
-312 -35 -35 -79 -47 -180 -47 l-83 0 0 185 0 185 84 0 c45 0 98 -5 117 -11z
m-1923 -125 c20 -23 22 -35 22 -130 0 -86 -3 -104 -15 -104 -9 0 -15 9 -15 21
l0 20 -26 -20 c-33 -26 -94 -28 -122 -3 -62 52 -19 125 81 137 60 8 67 17 47
56 -15 27 -75 26 -92 -1 -7 -11 -23 -20 -36 -20 -22 0 -22 1 -7 30 28 54 119
61 163 14z m137 -69 c21 -58 40 -103 44 -100 3 3 22 50 42 103 29 79 40 98 58
100 27 4 32 19 -57 -203 -57 -144 -71 -171 -90 -173 -23 -3 -23 -3 -6 35 28
65 27 76 -24 211 -49 129 -49 132 -27 132 20 0 28 -13 60 -105z m795 85 c29
-15 51 -48 57 -84 l6 -36 -102 0 c-97 0 -101 -1 -101 -22 0 -36 38 -68 81 -68
35 0 69 20 69 41 0 5 11 9 25 9 34 0 31 -16 -9 -56 -28 -28 -42 -34 -75 -34
-83 0 -131 49 -131 133 0 100 94 160 180 117z m1337 -6 c26 -16 38 -37 48 -81
l7 -33 -101 0 c-55 0 -103 -4 -106 -10 -8 -13 21 -66 40 -74 38 -14 83 -6 103
19 20 25 52 34 52 14 0 -41 -57 -79 -119 -79 -77 0 -131 78 -111 163 20 89
111 128 187 81z m137 -67 c20 -51 36 -98 36 -105 0 -34 20 -2 57 91 32 80 45
103 62 105 11 2 21 1 21 -1 0 -2 -24 -62 -54 -133 -74 -174 -78 -174 -145 -7
-28 70 -51 131 -51 136 0 4 9 7 19 7 15 0 27 -21 55 -93z m266 67 l0 -26 18
21 c9 11 28 22 42 23 19 2 26 -2 28 -20 2 -15 -1 -23 -10 -21 -26 3 -38 -1
-58 -21 -17 -17 -20 -33 -20 -110 0 -83 -1 -90 -20 -90 -19 0 -20 7 -20 135 0
128 1 135 20 135 15 0 20 -7 20 -26z m187 -112 l3 -132 -25 0 -25 0 0 128 c0
71 3 132 7 136 4 4 14 5 22 4 12 -2 15 -28 18 -136z m253 101 c18 -23 19 -23
29 -5 13 25 58 41 90 33 48 -12 65 -52 69 -161 4 -100 4 -100 -19 -100 -24 0
-24 2 -24 96 0 89 -2 97 -24 115 -28 23 -41 24 -67 5 -16 -12 -20 -29 -22
-115 -4 -91 -6 -101 -23 -101 -17 0 -19 8 -19 90 0 83 -2 93 -25 115 -29 30
-49 31 -75 5 -17 -17 -20 -33 -20 -115 0 -88 -1 -95 -20 -95 -19 0 -20 7 -20
130 0 109 2 130 15 130 8 0 15 -7 15 -15 0 -19 14 -19 30 -1 25 31 81 26 110
-11z m300 -98 c0 -128 -1 -135 -20 -135 -19 0 -20 7 -20 135 0 128 1 135 20
135 19 0 20 -7 20 -135z m-3979 95 c14 -19 19 -48 21 -128 3 -92 1 -102 -14
-102 -12 0 -18 8 -18 21 l0 20 -26 -20 c-35 -28 -97 -28 -124 -1 -12 12 -20
33 -20 54 0 46 35 73 106 81 47 6 54 10 54 29 0 12 -5 27 -12 34 -19 19 -75
15 -90 -7 -14 -19 -46 -32 -47 -18 -2 21 1 29 19 47 17 17 31 20 77 18 46 -2
59 -7 74 -28z m129 9 l0 -20 26 20 c62 49 155 9 174 -74 27 -119 -71 -212
-165 -156 l-35 20 0 -69 c0 -63 -2 -70 -20 -70 -19 0 -20 7 -20 185 0 178 1
185 20 185 14 0 20 -7 20 -21z m1900 11 c28 -15 40 -64 40 -161 0 -82 -2 -89
-20 -89 -14 0 -20 7 -20 21 l0 20 -26 -20 c-62 -49 -148 -14 -142 56 4 48 38
72 111 80 60 6 67 14 41 51 -20 28 -68 29 -91 2 -18 -21 -53 -27 -53 -10 0 6
11 22 25 35 19 19 35 25 70 25 26 0 55 -4 65 -10z"/>
<path d="M5340 8098 l0 -93 106 5 c96 5 108 7 125 29 10 13 19 38 19 56 0 67
-52 94 -182 95 l-68 0 0 -92z"/>
<path d="M5340 7805 l0 -95 100 0 c54 0 110 5 124 11 57 27 59 125 3 159 -26
16 -51 20 -129 20 l-98 0 0 -95z"/>
<path d="M1879 7985 c-22 -12 -59 -68 -59 -89 0 -3 54 -6 120 -6 118 0 120 0
120 23 0 26 -26 60 -57 76 -30 15 -93 13 -124 -4z"/>
<path d="M2669 7985 c-22 -12 -59 -68 -59 -89 0 -8 235 -8 243 0 11 12 -16 65
-43 84 -33 24 -102 26 -141 5z"/>
<path d="M3758 7984 c-26 -14 -58 -60 -58 -84 0 -6 43 -10 120 -10 115 0 120
1 120 21 0 12 -15 36 -34 55 -28 28 -41 34 -77 34 -24 -1 -56 -7 -71 -16z"/>
<path d="M4315 7980 c-11 -4 -31 -20 -45 -35 -22 -23 -25 -36 -25 -100 0 -68
2 -76 29 -104 75 -78 195 -36 211 73 18 117 -74 206 -170 166z"/>
<path d="M7942 7984 c-22 -15 -52 -63 -52 -84 0 -6 43 -10 120 -10 89 0 120 3
120 13 0 24 -40 78 -66 87 -38 15 -97 12 -122 -6z"/>
<path d="M4572 6922 c-91 -85 -38 -262 79 -262 84 0 129 51 129 146 0 93 -47
144 -133 144 -35 0 -51 -6 -75 -28z"/>
<path d="M1736 6960 c-37 -12 -62 -35 -75 -71 l-10 -29 120 0 c109 0 119 1
119 19 0 30 -38 70 -78 81 -42 11 -37 11 -76 0z"/>
<path d="M3482 6944 c-19 -13 -52 -63 -52 -79 0 -3 54 -5 120 -5 66 0 120 2
120 4 0 24 -28 70 -51 81 -37 20 -109 19 -137 -1z"/>
<path d="M2385 6087 c-21 -12 -53 -42 -70 -65 -27 -39 -30 -53 -34 -127 -3
-73 0 -91 22 -139 33 -71 83 -106 164 -113 71 -7 124 16 171 73 95 115 48 334
-81 383 -48 19 -128 13 -172 -12z"/>
<path d="M3350 6099 c-44 -17 -99 -80 -116 -132 -21 -63 -15 -157 14 -214 72
-140 265 -151 347 -18 28 45 30 56 30 140 0 84 -2 95 -30 141 -38 62 -97 94
-170 93 -27 0 -61 -5 -75 -10z"/>
<path d="M5977 5950 c-26 -72 -47 -136 -47 -141 0 -5 43 -9 95 -9 52 0 95 4
95 9 0 11 -79 241 -89 259 -5 9 -25 -35 -54 -118z"/>
<path d="M4705 5733 c-51 -14 -74 -75 -38 -104 22 -19 93 -16 125 5 24 16 57
81 46 91 -7 8 -113 14 -133 8z"/>
<path d="M6890 5737 c-29 -10 -36 -18 -38 -43 -4 -42 19 -64 69 -64 51 0 92
21 107 55 18 39 15 55 -10 55 -13 0 -39 2 -58 5 -19 3 -51 -1 -70 -8z"/>
<path d="M8632 5900 c-107 -65 -65 -270 55 -270 78 0 126 55 126 145 0 117
-91 180 -181 125z"/>
<path d="M1325 4508 c-28 -78 -51 -145 -53 -150 -2 -4 44 -8 103 -8 98 0 107
1 100 18 -3 9 -27 75 -51 146 -24 72 -46 131 -47 132 -2 2 -25 -61 -52 -138z"/>
<path d="M4951 3364 c-30 -38 -29 -113 2 -142 32 -30 81 -29 112 3 33 32 36
114 5 145 -31 31 -93 27 -119 -6z"/>
<path d="M2786 3277 c-12 -9 -17 -23 -14 -42 3 -27 7 -30 40 -33 44 -4 78 24
78 63 0 23 -4 25 -43 25 -24 0 -51 -6 -61 -13z"/>
<path d="M3566 3369 c-14 -17 -26 -35 -26 -40 0 -5 36 -9 80 -9 90 0 100 11
55 55 -35 35 -76 33 -109 -6z"/>
<path d="M5259 3371 c-16 -16 -29 -34 -29 -40 0 -7 30 -11 80 -11 90 0 100 11
55 55 -33 33 -70 32 -106 -4z"/>
<path d="M3740 2725 l0 -145 60 0 c114 0 170 48 170 143 0 100 -52 147 -162
147 l-68 0 0 -145z"/>
<path d="M1852 2648 c-28 -28 -7 -78 34 -78 30 0 71 35 76 65 5 24 3 25 -46
25 -29 0 -57 -5 -64 -12z"/>
<path d="M2791 2744 c-12 -15 -21 -31 -21 -35 0 -5 36 -9 80 -9 71 0 79 2 73
18 -21 58 -95 73 -132 26z"/>
<path d="M4120 2750 c-39 -39 -27 -50 55 -50 60 0 75 3 75 15 0 27 -38 55 -75
55 -22 0 -43 -8 -55 -20z"/>
<path d="M1280 2646 c-6 -8 -10 -25 -8 -37 9 -61 99 -46 117 19 l10 32 -53 0
c-35 0 -58 -5 -66 -14z"/>
<path d="M1584 2758 c-49 -23 -61 -122 -19 -163 53 -54 135 -15 135 64 0 52
-16 86 -47 100 -29 13 -41 13 -69 -1z"/>
<path d="M3365 2662 c-41 -5 -57 -20 -53 -51 7 -58 94 -50 119 11 17 41 2 50
-66 40z"/>
</g>
</svg>
