<?xml version="1.0" standalone="no"?>
<!DOCTYPE svg PUBLIC "-//W3C//DTD SVG 20010904//EN"
 "http://www.w3.org/TR/2001/REC-SVG-20010904/DTD/svg10.dtd">
<svg version="1.0" xmlns="http://www.w3.org/2000/svg"
 width="1024.000000pt" height="1024.000000pt" viewBox="0 0 1024.000000 1024.000000"
 preserveAspectRatio="xMidYMid meet">

<g transform="translate(0.000000,1024.000000) scale(0.100000,-0.100000)"
fill="#000000" stroke="none">
<path d="M0 5120 l0 -5120 1703 0 1704 0 28 104 c15 58 27 120 26 138 0 18 -4
84 -7 146 -11 190 -39 128 -73 -161 -12 -99 -26 -178 -34 -191 -12 -18 -25
-22 -66 -23 l-51 -1 0 67 c0 166 20 338 55 476 20 77 37 165 39 195 l4 54 150
37 c82 20 154 39 159 42 6 4 21 -95 38 -241 l28 -247 -57 -170 c-31 -93 -60
-182 -65 -198 l-9 -27 3334 0 3334 0 0 2510 0 2510 -60 0 -60 0 0 -370 0 -370
-90 0 -90 0 0 371 0 370 -120 -3 -120 -3 0 88 0 87 270 0 270 0 0 2525 0 2525
-5120 0 -5120 0 0 -5120z m8090 4847 c14 -8 24 -19 22 -26 -1 -7 2 -10 8 -6 5
3 15 -6 20 -20 13 -35 13 -58 -1 -49 -8 4 -9 0 -4 -15 4 -15 -1 -28 -19 -46
-26 -26 -34 -26 -100 -8 -13 4 -16 1 -11 -7 6 -9 2 -9 -15 0 -29 16 -51 71
-44 110 8 38 57 80 92 80 15 0 38 -6 52 -13z m-43 -340 c-2 -23 -3 -1 -3 48 0
50 1 68 3 42 2 -26 2 -67 0 -90z m-2741 76 c26 -28 31 -90 7 -86 -7 2 -10 -3
-7 -11 11 -29 -66 -48 -106 -26 -23 12 -39 59 -33 94 12 59 95 76 139 29z
m3426 -30 c40 -38 39 -93 -1 -134 -16 -16 -37 -29 -45 -29 -13 0 -16 -15 -16
-94 0 -52 -4 -97 -9 -100 -5 -3 -9 37 -10 90 -2 96 -2 96 -36 129 -29 26 -35
40 -35 72 0 84 92 124 152 66z m-685 -125 c-3 -7 -5 -2 -5 12 0 14 2 19 5 13
2 -7 2 -19 0 -25z m623 -258 c0 -5 -5 -10 -11 -10 -5 0 -7 5 -4 10 3 6 8 10
11 10 2 0 4 -4 4 -10z m-375 -119 c3 -5 2 -12 -3 -15 -5 -3 -9 1 -9 9 0 17 3
19 12 6z m101 -114 c6 2 19 -7 30 -19 l19 -23 -21 18 c-23 19 -39 23 -29 7 12
-19 -2 -10 -26 17 -16 19 -18 23 -4 12 11 -9 25 -15 31 -12z m49 -51 c7 3 16
1 20 -5 3 -6 1 -11 -6 -11 -9 0 -9 -3 1 -14 6 -8 17 -14 23 -12 7 1 9 1 4 -1
-14 -8 4 -22 21 -17 14 5 15 4 2 -5 -15 -10 -13 -12 13 -15 6 0 12 -8 12 -16
0 -8 7 -15 15 -15 8 0 15 -6 15 -12 0 -7 5 -13 10 -14 15 -1 54 -40 52 -53 -1
-6 3 -10 9 -9 6 1 11 -5 11 -13 0 -7 -1 -14 -1 -14 -1 0 -55 55 -121 122 -66
68 -114 117 -106 111 7 -6 19 -9 26 -7z m-5830 -277 l153 -30 51 22 c29 12 53
20 55 18 14 -16 70 -208 90 -306 13 -66 32 -144 40 -174 21 -71 21 -76 -13
-84 -33 -7 -95 -86 -63 -80 69 14 86 15 76 5 -6 -6 -49 -13 -95 -16 l-84 -6
-19 47 c-21 52 -31 58 -141 81 -107 23 -221 0 -269 -55 l-19 -21 104 6 c57 3
129 2 159 -3 86 -13 -194 -14 -427 -1 -166 10 -193 13 -193 27 1 38 72 163
128 223 l25 27 -17 59 c-9 32 -16 95 -16 139 0 106 12 122 106 139 116 20 204
16 369 -17z m4273 24 c-10 -2 -26 -2 -35 0 -10 3 -2 5 17 5 19 0 27 -2 18 -5z
m-95 -10 c-7 -2 -21 -2 -30 0 -10 3 -4 5 12 5 17 0 24 -2 18 -5z m-105 -80
c-43 -89 -159 -413 -152 -425 3 -4 0 -8 -7 -8 -11 0 -8 -114 7 -200 5 -32 -1
-46 -55 -125 -161 -237 -175 -259 -175 -291 -1 -43 -13 -30 -21 22 -6 37 -3
45 44 106 43 57 142 204 176 263 8 14 6 28 -8 56 -34 70 -26 134 44 324 76
211 113 292 146 327 15 16 30 28 33 28 4 0 -11 -35 -32 -77z m3030 0 c18 -24
15 -33 -10 -32 -13 0 -17 3 -11 6 19 7 -3 43 -27 43 -10 0 -21 4 -25 9 -10 17
59 -8 73 -26z m-78 7 c11 -11 16 -20 12 -20 -5 0 -12 3 -16 7 -13 13 -35 11
-48 -5 -10 -12 -10 -14 0 -8 6 4 12 2 12 -3 0 -6 -6 -11 -14 -11 -8 0 -17 -12
-19 -27 -4 -26 -4 -25 -6 5 -1 23 6 40 24 57 29 30 30 30 55 5z m30 -34 c0 -2
-8 -10 -17 -17 -16 -13 -17 -12 -4 4 13 16 21 21 21 13z m65 -39 c-3 -27 -26
-67 -38 -67 -4 0 -1 10 7 22 9 12 16 33 16 45 0 13 4 23 9 23 4 0 7 -11 6 -23z
m-100 4 c3 -5 2 -12 -3 -15 -5 -3 -9 1 -9 9 0 17 3 19 12 6z m-27 -60 c13 -7
21 -15 18 -18 -8 -8 -56 26 -56 40 0 8 3 9 8 1 4 -6 18 -17 30 -23z m-2965
-308 c-7 -2 -19 -2 -25 0 -7 3 -2 5 12 5 14 0 19 -2 13 -5z m-5018 -67 c62
-29 93 -63 136 -146 l33 -65 3 -324 c1 -206 6 -343 14 -375 28 -123 127 -268
277 -406 75 -70 219 -184 242 -192 13 -4 -8 -69 -45 -137 l-25 -46 29 33 c30
35 38 49 70 125 11 26 24 47 28 47 23 0 60 -129 148 -505 130 -561 166 -830
169 -1270 1 -248 -18 -578 -24 -420 l-3 70 -7 -60 c-4 -33 -14 -85 -22 -115
-35 -126 -79 -350 -74 -377 23 -116 29 -142 35 -139 4 3 7 -4 8 -14 1 -11 -2
-22 -6 -24 -4 -3 -25 70 -45 162 -77 341 -138 581 -187 737 -28 88 -56 180
-64 205 -7 25 -16 117 -20 205 -3 88 -8 192 -11 230 -13 204 -16 247 -28 532
l-3 63 41 11 c23 6 57 12 76 13 32 1 35 3 32 27 -4 26 -5 26 -55 17 -28 -6
-59 -14 -69 -19 -22 -12 -28 -11 -28 2 0 16 -90 193 -102 200 -16 10 0 49 44
107 35 47 41 51 60 41 38 -20 119 -102 155 -156 38 -58 52 -69 28 -24 -8 17
-12 37 -9 45 15 39 -146 216 -195 216 -10 0 -38 -30 -70 -75 -29 -42 -78 -106
-109 -143 -30 -37 -41 -54 -24 -38 38 35 34 38 111 -94 58 -101 58 -99 71
-262 5 -71 14 -183 20 -250 5 -68 14 -197 20 -288 5 -91 14 -180 20 -199 20
-71 2 -38 -35 61 -157 427 -258 654 -440 983 -134 243 -354 587 -530 826 -52
72 -53 83 -9 178 24 52 26 55 39 37 19 -25 22 -18 44 123 17 104 20 114 54
149 37 38 67 105 67 151 0 14 10 37 21 51 19 23 19 23 9 2 -9 -18 -7 -28 9
-51 33 -46 111 -91 158 -91 53 0 93 31 93 71 l0 29 -34 -16 c-47 -23 -94 -12
-156 37 -106 84 -150 175 -158 326 -4 90 -2 106 18 147 24 51 74 85 125 85 17
1 53 -10 80 -23z m6085 -46 c-8 -5 -19 -10 -25 -10 -5 0 -3 5 5 10 8 5 20 10
25 10 6 0 3 -5 -5 -10z m-4920 -10 c10 -7 -1 -8 -35 -4 -27 4 -52 8 -54 10
-10 9 75 3 89 -6z m-707 -31 c31 -1 57 -5 57 -9 0 -4 -30 -6 -67 -4 -68 3 -68
3 32 -16 55 -10 128 -26 162 -35 33 -8 75 -17 92 -18 17 -1 31 -4 31 -7 8
-207 39 -271 142 -292 49 -10 65 -9 114 6 93 29 129 71 174 201 41 119 58 137
81 83 7 -18 33 -67 58 -108 93 -157 127 -261 101 -310 -21 -38 -130 -88 -130
-59 0 5 5 7 12 3 7 -4 2 6 -10 24 -28 39 -48 45 -103 33 -67 -16 -78 -14 -99
21 l-19 32 -10 -28 c-8 -21 -7 -34 4 -56 8 -16 11 -31 7 -34 -12 -7 -112 2
-153 15 -30 9 -42 8 -84 -12 -68 -32 -120 -85 -136 -139 -7 -25 -13 -46 -14
-48 -1 -1 -34 14 -74 33 -39 19 -75 35 -80 35 -5 0 -40 29 -78 64 -103 96
-153 216 -153 368 0 90 56 278 78 264 5 -3 34 -6 65 -7z m634 -14 c17 -7 39
-24 48 -38 14 -23 14 -30 -1 -98 -19 -89 -54 -153 -97 -180 -40 -24 -133 -26
-164 -4 -39 27 -56 95 -51 195 6 97 14 114 63 137 35 16 151 9 202 -12z m-364
-16 c44 -12 51 -39 10 -38 -16 0 -22 3 -15 6 6 2 9 9 6 14 -3 6 -12 5 -22 -3
-9 -8 -13 -8 -9 -2 8 13 -13 24 -44 24 -11 0 -17 -4 -14 -10 3 -5 1 -10 -4
-10 -6 0 -11 5 -11 11 0 6 -9 9 -20 6 -11 -3 -20 -1 -20 3 0 5 -12 11 -27 13
-16 2 8 2 52 0 44 -3 97 -9 118 -14z m-43 -13 c0 -2 -7 -7 -16 -10 -8 -3 -12
-2 -9 4 6 10 25 14 25 6z m2981 -253 c13 -16 12 -17 -3 -4 -10 7 -18 15 -18
17 0 8 8 3 21 -13z m-2394 -355 c-3 -8 -6 -5 -6 6 -1 11 2 17 5 13 3 -3 4 -12
1 -19z m-265 -9 c34 -11 103 -26 152 -32 l89 -12 -22 -25 c-12 -14 -31 -40
-42 -59 -20 -34 -21 -34 -82 -29 -82 7 -153 42 -167 81 -14 40 -13 45 8 49 9
3 -9 10 -40 17 -32 7 -60 17 -63 22 -11 17 102 9 167 -12z m-128 -58 c71 -68
118 -94 210 -117 52 -13 69 -14 81 -4 35 29 48 -25 14 -56 -17 -15 -35 -19
-88 -18 -36 0 -76 6 -89 13 -27 14 -27 14 -2 -49 18 -44 18 -51 5 -57 -23 -8
-96 22 -132 56 -20 18 -38 49 -48 82 -18 60 -32 209 -20 209 5 0 36 -26 69
-59z m383 17 c-3 -8 -6 -5 -6 6 -1 11 2 17 5 13 3 -3 4 -12 1 -19z m3863 -4
c0 -13 -24 -49 -49 -70 -53 -48 -181 -69 -181 -31 0 7 -8 28 -18 47 l-17 35
80 2 c44 2 100 7 125 12 60 12 60 12 60 5z m-3883 -111 c-3 -10 -5 -2 -5 17 0
19 2 27 5 18 2 -10 2 -26 0 -35z m-10 -135 c-2 -24 -4 -7 -4 37 0 44 2 63 4
43 2 -21 2 -57 0 -80z m5259 -14 c19 -47 19 -48 -28 -80 -72 -50 -219 -172
-325 -271 -164 -151 -409 -451 -600 -732 -48 -69 -91 -130 -96 -136 -14 -14 0
10 43 75 53 80 53 79 30 77 -11 -1 -20 -5 -20 -10 0 -4 -6 -7 -12 -5 -7 2 -15
-2 -17 -7 -2 -6 -13 -16 -23 -24 -11 -7 -26 -28 -34 -45 -10 -23 -13 -26 -14
-11 0 11 30 58 68 104 37 46 75 94 85 107 17 21 16 25 -23 130 -41 114 -72
232 -64 245 2 4 111 78 242 165 130 86 249 165 263 175 39 27 429 249 437 249
4 0 18 9 32 19 29 23 38 19 56 -25z m-4579 -6 c31 -34 36 -63 18 -97 -42 -83
-155 -58 -155 34 0 74 90 114 137 63z m138 -58 c-27 -12 -67 -12 -85 0 -11 7
3 10 45 9 43 0 54 -3 40 -9z m-844 -163 c-10 -9 -11 -8 -5 6 3 10 9 15 12 12
3 -3 0 -11 -7 -18z m-21 -37 c-6 -11 -13 -20 -16 -20 -2 0 0 9 6 20 6 11 13
20 16 20 2 0 0 -9 -6 -20z m-93 -56 c-3 -3 -12 -4 -19 -1 -8 3 -5 6 6 6 11 1
17 -2 13 -5z m4368 -191 c8 -24 10 -43 6 -43 -4 0 -13 18 -20 41 -7 23 -14 39
-17 37 -2 -2 1 -20 6 -39 14 -47 13 -59 -7 -66 -25 -9 -104 -93 -101 -107 3
-12 -53 -148 -59 -143 -9 10 63 201 104 277 55 103 66 118 71 99 2 -8 10 -33
17 -56z m-112 -878 c-9 -19 -18 -34 -19 -32 -6 6 21 75 28 71 4 -3 0 -20 -9
-39z m2476 -555 c69 -30 135 -103 155 -171 25 -82 27 -79 -69 -79 -76 0 -85 2
-85 19 0 29 -37 68 -76 81 -79 26 -179 7 -204 -39 -5 -11 -10 -35 -10 -54 0
-50 36 -81 118 -102 199 -50 235 -65 288 -119 61 -60 79 -111 71 -199 -9 -102
-71 -180 -169 -213 -79 -27 -234 -24 -312 6 -101 39 -177 125 -192 219 l-7 41
82 0 c80 0 82 -1 92 -27 24 -65 91 -102 181 -103 98 0 158 37 158 97 0 70 -38
98 -184 132 -154 37 -262 112 -286 200 -34 122 13 237 120 295 91 50 234 57
329 16z m-1719 -65 l0 -85 -195 0 -195 0 0 -105 0 -105 160 0 160 0 0 -85 0
-85 -160 0 -160 0 0 -180 0 -180 -85 0 -85 0 0 455 0 455 280 0 280 0 0 -85z
m858 75 c132 -17 221 -75 268 -175 29 -60 33 -171 9 -229 -22 -52 -87 -119
-135 -141 -23 -11 -39 -24 -36 -31 2 -6 45 -80 95 -164 50 -83 91 -153 91
-155 0 -1 -42 -3 -93 -4 l-94 -2 -78 133 c-43 73 -85 145 -94 160 -14 25 -21
28 -73 28 l-58 0 0 -159 0 -159 -87 2 -88 1 -3 440 c-1 242 0 446 3 453 5 15
261 16 373 2z m-2754 -37 c61 -125 366 -839 366 -856 0 -4 -39 -6 -87 -5 l-88
3 -39 98 -40 97 -167 0 -168 0 -21 -57 c-11 -32 -28 -77 -37 -100 l-16 -43
-87 0 c-48 0 -89 2 -92 5 -3 3 17 59 44 123 28 64 101 239 163 387 177 424
156 385 208 385 40 0 45 -3 61 -37z m634 -410 l-3 -448 -82 -3 -83 -3 0 451 0
450 85 0 85 0 -2 -447z m1572 -3 l0 -450 -85 0 -85 0 0 450 0 450 85 0 85 0 0
-450z m-1030 -65 l0 -75 -195 0 -195 0 0 75 0 75 195 0 195 0 0 -75z m-4333
-337 c-2 -18 -4 -6 -4 27 0 33 2 48 4 33 2 -15 2 -42 0 -60z m-10 -95 c-3 -10
-5 -2 -5 17 0 19 2 27 5 18 2 -10 2 -26 0 -35z m-10 -115 c-3 -7 -5 -2 -5 12
0 14 2 19 5 13 2 -7 2 -19 0 -25z m-12 -88 c-4 -34 -9 -59 -12 -57 -2 3 -1 33
3 66 4 34 9 60 11 57 3 -3 2 -32 -2 -66z m4709 -76 c6 -16 -9 -44 -23 -44 -4
0 -16 6 -26 14 -16 12 -17 16 -6 30 17 21 47 21 55 0z m716 -39 l0 -55 27 11
c99 38 181 -105 104 -182 -31 -31 -75 -38 -112 -19 -13 7 -19 7 -19 0 0 -5
-11 -10 -25 -10 l-25 0 0 155 0 155 25 0 c24 0 25 -3 25 -55z m685 30 c0 -22
-31 -33 -47 -17 -17 17 -1 44 24 40 15 -2 23 -10 23 -23z m-6128 -22 c-3 -10
-5 -4 -5 12 0 17 2 24 5 18 2 -7 2 -21 0 -30z m3061 10 c3 -22 0 -23 -72 -23
l-76 0 0 -40 0 -40 60 0 c57 0 60 -1 60 -25 0 -24 -3 -25 -61 -25 l-60 0 3
-37 3 -38 65 0 c65 0 70 -2 70 -30 0 -12 -17 -15 -90 -15 l-90 0 0 150 0 151
93 -3 c87 -3 92 -4 95 -25z m80 -65 c9 -9 15 -9 24 0 16 16 50 15 73 -2 15
-11 22 -11 44 0 39 20 69 17 96 -11 23 -22 25 -32 25 -110 0 -78 -2 -85 -20
-85 -18 0 -20 7 -20 72 0 75 -15 108 -50 108 -31 0 -40 -22 -40 -102 0 -77 0
-78 -26 -78 -15 0 -23 4 -18 11 3 6 3 44 -1 85 -6 69 -9 75 -32 80 -39 10 -53
-17 -53 -103 0 -66 -2 -73 -20 -73 -19 0 -20 7 -20 110 0 112 7 129 38 98z
m483 -11 c63 -42 69 -126 13 -175 -28 -24 -73 -27 -117 -7 -17 7 -18 3 -16
-41 3 -44 1 -49 -19 -52 -22 -3 -22 -3 -22 142 l0 146 26 0 c14 0 23 -4 19
-10 -9 -15 7 -12 29 5 27 21 47 19 87 -8z m234 8 c75 -36 74 -155 -2 -194 -42
-21 -83 -13 -119 23 -54 54 -46 127 19 166 39 24 59 25 102 5z m578 -25 c17
-19 27 -42 27 -60 l0 -30 -80 0 c-44 0 -80 -3 -80 -7 0 -31 79 -59 95 -33 8
13 18 13 40 -4 18 -13 17 -14 -13 -30 -101 -52 -201 35 -158 138 29 70 116 83
169 26z m207 36 c0 -20 -16 -36 -36 -36 -37 0 -54 -36 -54 -112 0 -66 -1 -68
-25 -68 l-25 0 0 105 0 105 25 0 c17 0 25 -6 25 -17 0 -14 3 -13 16 5 10 14
25 22 45 22 16 0 29 -2 29 -4z m80 -106 l0 -110 -25 0 -25 0 0 110 0 110 25 0
25 0 0 -110z m215 85 c23 -22 25 -32 25 -110 0 -78 -2 -85 -20 -85 -18 0 -20
7 -20 74 0 81 -13 106 -54 106 -37 0 -46 -19 -46 -102 0 -77 0 -78 -25 -78
l-25 0 0 105 c0 98 1 105 20 105 11 0 20 -5 20 -11 0 -5 10 -3 22 5 33 23 75
20 103 -9z m225 8 c22 -16 23 -16 17 0 -5 13 -1 17 18 17 l25 0 0 -126 c0
-125 0 -126 -29 -155 -24 -24 -38 -29 -76 -29 -50 0 -99 20 -108 45 -8 20 30
20 68 1 40 -21 95 6 95 47 0 14 -4 17 -17 12 -10 -5 -33 -10 -50 -13 -27 -3
-39 2 -68 31 -29 29 -35 42 -35 77 0 83 95 139 160 93z m530 -54 c0 -82 11
-109 45 -109 42 0 55 24 55 106 0 72 1 74 25 74 l25 0 0 -110 c0 -103 -1 -110
-20 -110 -12 0 -20 7 -20 17 0 15 -1 15 -18 0 -30 -27 -87 -22 -111 9 -17 22
-21 41 -21 110 0 77 2 84 20 84 18 0 20 -7 20 -71z m326 50 c8 -6 14 -17 14
-24 0 -18 -38 -26 -44 -9 -7 18 -40 18 -56 -1 -10 -12 -3 -18 44 -39 31 -14
59 -32 62 -41 26 -66 -77 -113 -140 -64 -14 11 -26 25 -26 30 0 12 47 12 55
-1 8 -12 45 -13 64 -1 21 13 -2 38 -42 46 -69 15 -88 67 -40 105 30 23 81 23
109 -1z m104 -89 c0 -107 -1 -110 -22 -110 -22 0 -23 3 -23 110 0 107 1 110
23 110 21 0 22 -3 22 -110z m231 91 c21 -17 24 -29 27 -110 4 -87 3 -91 -17
-91 -19 0 -21 6 -21 68 0 76 -17 112 -54 112 -37 0 -46 -19 -46 -102 0 -77 0
-78 -25 -78 l-25 0 0 105 c0 98 1 105 20 105 11 0 20 -5 20 -11 0 -5 10 -3 22
5 30 21 71 20 99 -3z m209 4 c32 -16 60 -61 60 -94 0 -19 -7 -20 -87 -23 l-88
-3 23 -23 c23 -23 51 -26 92 -9 8 4 22 2 30 -3 13 -8 13 -11 -1 -25 -22 -22
-83 -30 -119 -15 -36 15 -60 55 -60 100 0 42 15 67 53 90 39 24 59 25 97 5z
m224 -6 c14 -11 26 -24 26 -29 0 -17 -34 -20 -51 -4 -20 18 -54 15 -54 -5 0
-14 6 -18 67 -44 52 -23 62 -61 24 -94 -34 -29 -84 -30 -120 -2 -14 11 -26 25
-26 30 0 12 47 12 55 -1 9 -15 51 -12 65 5 10 13 7 17 -23 30 -20 8 -40 15
-43 15 -17 0 -44 35 -44 56 0 27 43 64 75 64 12 0 34 -9 49 -21z m219 -11 c18
-21 18 -22 -4 -30 -15 -6 -25 -4 -33 8 -14 19 -50 15 -54 -6 -1 -10 17 -24 50
-40 49 -23 53 -28 53 -60 0 -39 -27 -60 -81 -60 -31 0 -84 32 -84 51 0 12 47
12 55 -1 8 -13 62 -13 71 1 9 15 -9 31 -58 49 -31 11 -45 23 -53 44 -8 25 -6
31 19 53 24 20 36 24 65 19 20 -3 44 -15 54 -28z m201 17 c35 -17 66 -61 66
-94 0 -20 -5 -21 -86 -21 l-86 0 14 -22 c17 -26 57 -34 87 -19 20 11 51 5 51
-10 0 -5 -14 -16 -32 -25 -44 -23 -106 -13 -135 21 -45 51 -21 150 41 175 31
13 44 12 80 -5z m230 -6 c14 -11 26 -24 26 -29 0 -15 -39 -18 -51 -3 -16 18
-53 13 -57 -9 -2 -11 8 -20 35 -28 43 -14 83 -46 83 -67 0 -26 -48 -63 -80
-63 -44 0 -89 26 -90 51 0 15 41 16 48 2 11 -20 66 -13 70 8 2 11 -12 22 -50
35 -34 12 -54 26 -56 37 -14 71 63 112 122 66z m-3454 -1 c0 -7 8 -40 18 -73
l18 -60 19 73 c16 62 22 72 41 72 20 0 26 -11 46 -77 l23 -76 19 76 c18 73 21
77 47 77 l28 0 -14 -40 c-8 -23 -24 -72 -35 -110 -18 -60 -24 -70 -44 -70 -19
0 -26 9 -41 63 -18 61 -35 94 -35 68 0 -7 -7 -37 -16 -67 -13 -45 -19 -54 -39
-54 -21 0 -27 12 -58 105 l-36 105 30 0 c16 0 29 -5 29 -12z m-680 -445 c0
-44 3 -54 12 -45 21 21 77 14 103 -13 23 -22 25 -32 25 -110 0 -78 -2 -85 -20
-85 -18 0 -20 7 -20 64 0 88 -12 116 -48 116 -44 0 -52 -16 -52 -102 0 -77 0
-78 -25 -78 l-25 0 0 155 0 155 25 0 c24 0 25 -3 25 -57z m1122 1 c-4 -53 -3
-55 16 -45 35 19 77 13 102 -14 20 -21 24 -38 28 -110 l5 -85 -27 0 c-26 0
-26 0 -26 79 0 85 -10 105 -52 99 -32 -4 -48 -43 -48 -115 0 -56 -2 -63 -20
-63 -19 0 -20 7 -20 155 0 154 0 155 23 155 21 0 22 -4 19 -56z m501 -94 c32
-83 57 -152 57 -155 0 -3 -11 -5 -24 -5 -19 0 -27 8 -36 35 l-12 35 -64 0
c-65 0 -65 0 -80 -35 -11 -27 -20 -35 -39 -35 l-24 0 30 83 c17 45 43 115 57
155 23 65 28 72 52 72 25 0 30 -9 83 -150z m137 -5 l0 -155 -25 0 -25 0 0 155
0 155 25 0 25 0 0 -155z m220 140 c10 -12 10 -18 0 -30 -7 -8 -18 -15 -25 -15
-7 0 -18 7 -25 15 -10 12 -10 18 0 30 7 8 18 15 25 15 7 0 18 -7 25 -15z
m1427 -1 c8 -21 -19 -46 -40 -38 -17 6 -23 35 -10 47 12 13 44 7 50 -9z
m-3552 -46 c0 -28 3 -33 23 -30 17 3 22 -2 22 -17 0 -16 -6 -21 -25 -21 -24 0
-25 -3 -25 -59 0 -58 16 -91 39 -77 11 7 24 -22 15 -35 -10 -16 -53 -10 -74
11 -16 16 -20 33 -20 90 0 56 -3 70 -15 70 -8 0 -15 9 -15 20 0 11 6 19 13 18
7 -2 13 10 15 30 3 25 8 32 25 32 18 0 22 -6 22 -32z m3405 -2 c0 -28 3 -33
22 -32 14 1 24 -6 26 -16 3 -14 -3 -18 -23 -18 -26 0 -26 -1 -23 -67 3 -60 5
-68 23 -68 31 0 27 -39 -5 -43 -48 -6 -64 18 -68 102 -3 58 -8 76 -19 76 -9 0
-13 7 -11 18 2 9 10 16 16 15 8 -2 12 10 12 32 0 31 3 35 25 35 22 0 25 -4 25
-34z m-2937 -32 c11 -12 -5 -34 -26 -34 -42 0 -57 -27 -57 -107 0 -71 -1 -73
-25 -73 l-25 0 0 105 0 105 25 0 c17 0 25 -6 25 -17 0 -14 3 -13 16 5 14 20
53 30 67 16z m157 -9 c40 -21 60 -53 60 -98 0 -54 -52 -107 -105 -107 -52 0
-105 53 -105 105 0 47 14 71 53 95 38 24 59 25 97 5z m142 -51 c-2 -33 2 -72
7 -88 9 -23 16 -27 43 -24 42 4 58 35 58 116 0 55 2 62 20 62 19 0 20 -7 20
-110 0 -102 -1 -110 -19 -110 -11 0 -21 6 -24 13 -4 10 -7 10 -18 0 -22 -22
-77 -16 -104 12 -23 22 -25 32 -25 110 0 84 1 86 23 83 20 -3 22 -7 19 -64z
m336 50 c12 -8 22 -11 22 -6 0 5 11 12 25 14 l25 5 0 -113 c0 -130 -8 -157
-49 -179 -55 -28 -149 -11 -164 29 -9 22 31 31 52 12 39 -36 111 -8 111 42 0
24 -1 24 -18 9 -52 -48 -152 12 -152 91 0 82 87 139 148 96z m1022 -94 l0
-110 -25 0 -25 0 0 110 0 110 25 0 25 0 0 -110z m199 95 c34 -17 41 -38 41
-132 0 -69 -1 -73 -22 -73 -22 0 -23 3 -20 68 3 56 0 72 -16 92 -17 21 -24 23
-48 15 -28 -10 -29 -12 -32 -93 -3 -80 -4 -82 -27 -82 -25 0 -25 0 -25 105 0
98 1 105 20 105 11 0 20 -5 20 -11 0 -5 10 -3 22 5 28 20 51 20 87 1z m234 4
c35 -16 47 -50 47 -134 0 -73 -1 -75 -25 -75 -25 0 -25 1 -24 76 1 91 -13 114
-58 98 -27 -9 -28 -12 -31 -92 -3 -80 -4 -82 -27 -82 -25 0 -25 0 -25 105 0
98 1 105 20 105 11 0 20 -5 20 -11 0 -5 10 -3 22 5 27 19 48 20 81 5z m245 -9
c57 -35 69 -108 26 -159 -63 -75 -184 -35 -184 61 0 50 13 74 53 98 40 25 64
25 105 0z m455 -11 c13 -16 17 -40 17 -105 0 -78 -1 -84 -21 -84 -13 0 -18 4
-13 12 5 8 2 9 -12 3 -43 -19 -88 -17 -111 5 -53 49 -17 108 72 118 47 5 53
10 33 30 -17 17 -53 15 -68 -3 -15 -19 -50 -20 -50 -2 0 15 26 41 50 50 28 11
85 -2 103 -24z m287 -79 l0 -110 -25 0 -25 0 0 110 0 110 25 0 25 0 0 -110z
m226 79 c37 -34 48 -80 30 -122 -39 -95 -183 -81 -202 20 -19 101 99 171 172
102z m235 12 c21 -17 25 -30 29 -110 5 -89 5 -91 -17 -91 -22 0 -23 4 -23 74
0 79 -13 106 -50 106 -37 0 -50 -27 -50 -106 0 -72 -1 -74 -25 -74 l-25 0 0
105 c0 98 1 105 20 105 11 0 20 -4 20 -9 0 -6 12 -3 28 5 37 19 65 18 93 -5z
m-1065 -61 c15 -39 30 -67 34 -63 4 4 17 36 30 71 19 52 26 62 46 62 13 0 24
-3 24 -7 0 -5 -18 -51 -39 -103 -33 -81 -42 -95 -63 -98 -22 -3 -27 4 -50 65
-14 37 -33 85 -42 106 -16 37 -16 37 8 37 21 0 28 -10 52 -70z m-4809 -202
c-26 -5 -72 -19 -102 -33 -46 -20 -60 -22 -91 -14 -20 6 -53 7 -75 4 -21 -4
-42 -7 -46 -7 -14 0 -85 -83 -105 -123 -12 -22 -45 -63 -76 -91 l-55 -51 7
-57 c9 -69 24 -79 117 -78 82 0 136 22 207 85 40 35 47 47 34 50 -9 3 12 5 48
6 84 1 102 -10 281 -174 153 -141 347 -366 380 -441 28 -62 20 -105 -27 -140
-28 -22 -39 -25 -57 -17 -12 6 -26 12 -32 14 -9 4 -40 39 -208 237 -27 31 -60
77 -75 101 -14 24 -28 39 -30 32 -7 -20 56 -114 154 -230 51 -60 97 -118 103
-129 18 -35 13 -77 -14 -106 -25 -27 -83 -57 -107 -55 -7 0 -4 4 7 8 18 7 17
9 -12 24 -32 17 -225 217 -253 262 -15 25 -30 33 -30 16 0 -8 88 -124 180
-234 22 -27 40 -59 40 -72 0 -23 -50 -75 -73 -75 -28 0 -82 46 -163 139 -48
56 -89 101 -90 101 -2 0 -1 -8 2 -17 5 -15 4 -16 -5 -3 -6 8 -11 22 -11 31 0
9 -7 22 -15 29 -12 10 -15 9 -15 -4 0 -27 28 -74 107 -180 l75 -99 -24 -21
c-13 -12 -36 -22 -53 -24 -48 -5 -67 17 -76 87 -5 34 -16 73 -25 87 -15 22
-64 42 -86 36 -5 -1 -8 12 -8 28 0 43 -24 96 -50 110 -22 12 -75 5 -96 -11 -8
-7 -13 3 -18 30 -9 55 -56 95 -103 86 -19 -3 -40 -8 -48 -11 -7 -3 -16 3 -20
15 -3 11 -20 32 -36 46 -36 29 -93 34 -140 10 -27 -14 -34 -14 -79 2 -28 10
-50 22 -50 28 0 5 18 74 40 153 34 122 72 289 95 425 6 37 7 38 38 31 81 -18
187 15 322 101 127 80 127 80 203 68 60 -10 77 -9 156 12 49 12 98 20 110 17
15 -5 8 -8 -27 -14z m-907 -114 c60 -18 100 -41 100 -58 0 -7 -3 -7 -8 1 -5 8
-23 -47 -45 -135 -20 -82 -55 -196 -76 -254 -60 -158 -143 -339 -158 -345 -14
-5 -90 24 -98 37 -3 4 9 45 26 91 37 101 132 411 160 523 33 131 40 156 43
156 1 0 26 -7 56 -16z m1662 -131 c17 -38 49 -122 71 -188 38 -114 41 -127 45
-268 6 -202 4 -211 -58 -231 -85 -28 -85 -28 -86 67 0 53 1 61 3 24 4 -54 5
-58 26 -52 19 5 20 5 5 -5 -10 -6 -18 -18 -18 -25 0 -18 1 -18 37 -4 15 6 36
12 47 15 10 2 20 5 22 7 2 2 6 44 9 93 4 49 2 84 -2 79 -4 -6 -15 -10 -23 -10
-8 1 -36 -4 -62 -11 l-47 -12 -5 31 c-31 214 -64 344 -111 440 -18 37 -32 67
-31 67 0 0 33 11 71 25 39 13 71 24 73 24 2 1 17 -29 34 -66z m-979 -94 c-10
-17 -24 -36 -32 -42 -8 -7 -2 7 14 31 32 49 45 57 18 11z m-277 -86 c-7 -7
-26 7 -26 19 0 6 6 6 15 -2 9 -7 13 -15 11 -17z m51 -9 c-3 -3 -12 -4 -19 -1
-8 3 -5 6 6 6 11 1 17 -2 13 -5z m71 -1 c-10 -2 -28 -2 -40 0 -13 2 -5 4 17 4
22 1 32 -1 23 -4z m1195 -393 c-3 -12 -8 -19 -11 -16 -5 6 5 36 12 36 2 0 2
-9 -1 -20z m-406 -276 c-3 -3 -12 -4 -19 -1 -8 3 -5 6 6 6 11 1 17 -2 13 -5z
m-202 -102 c-3 -3 -11 0 -18 7 -9 10 -8 11 6 5 10 -3 15 -9 12 -12z m4832
-456 c61 -53 20 -159 -61 -159 -53 0 -86 34 -86 90 0 84 84 123 147 69z m-47
-186 c0 -5 -4 -10 -10 -10 -5 0 -10 5 -10 10 0 6 5 10 10 10 6 0 10 -4 10 -10z
m-6 -36 c3 -8 2 -12 -4 -9 -6 3 -10 10 -10 16 0 14 7 11 14 -7z m-5204 -163
l0 -69 -87 -12 c-49 -7 -147 -20 -220 -29 l-132 -17 -5 36 c-3 19 -7 55 -8 80
l-3 45 95 7 c52 4 142 11 200 16 180 16 160 23 160 -57z m-433 -173 c-3 -7 -5
-2 -5 12 0 14 2 19 5 13 2 -7 2 -19 0 -25z m-30 -295 c-2 -16 -4 -3 -4 27 0
30 2 43 4 28 2 -16 2 -40 0 -55z m0 -105 c-3 -8 -6 -5 -6 6 -1 11 2 17 5 13 3
-3 4 -12 1 -19z"/>
<path d="M7993 9955 c-13 -9 -20 -22 -17 -30 4 -8 2 -15 -2 -15 -14 0 -8 -78
6 -95 7 -8 15 -13 19 -11 3 2 25 1 48 -4 55 -9 77 12 78 75 0 24 -2 41 -4 39
-7 -6 -41 28 -36 36 5 9 -76 -3 -95 -15 -12 -6 -13 -5 -3 5 7 7 29 16 50 20
35 7 36 8 8 9 -17 0 -40 -6 -52 -14z m-2 -132 c13 -16 12 -17 -3 -4 -10 7 -18
15 -18 17 0 8 8 3 21 -13z m129 14 c0 -2 -10 -12 -22 -23 l-23 -19 19 23 c18
21 26 27 26 19z"/>
<path d="M7951 9874 c0 -11 3 -14 6 -6 3 7 2 16 -1 19 -3 4 -6 -2 -5 -13z"/>
<path d="M5265 9701 c-3 -5 -2 -12 3 -15 5 -3 9 1 9 9 0 17 -3 19 -12 6z"/>
<path d="M8595 8840 c10 -11 20 -20 23 -20 3 0 -3 9 -13 20 -10 11 -20 20 -23
20 -3 0 3 -9 13 -20z"/>
<path d="M6305 7689 c-4 -6 -5 -12 -2 -15 2 -3 7 2 10 11 7 17 1 20 -8 4z"/>
<path d="M1493 8068 c-17 -18 -36 -44 -43 -58 -12 -23 -10 -23 21 6 19 18 44
35 56 38 26 8 68 -12 100 -46 l23 -24 -45 -37 c-39 -33 -45 -43 -45 -76 0 -63
78 -151 134 -151 25 0 31 47 10 71 -10 11 -23 18 -29 16 -12 -5 -12 5 0 104 8
77 -3 108 -60 158 -47 41 -82 41 -122 -1z m202 -316 c-5 -5 -45 22 -45 31 0 4
11 0 24 -10 13 -10 23 -19 21 -21z"/>
<path d="M2370 6620 c-9 -6 -10 -10 -3 -10 6 0 15 5 18 10 8 12 4 12 -15 0z"/>
<path d="M2026 6141 l-30 -36 34 32 c19 18 32 34 29 36 -2 2 -17 -12 -33 -32z"/>
<path d="M1979 6133 c-13 -16 -12 -17 4 -4 9 7 17 15 17 17 0 8 -8 3 -21 -13z"/>
<path d="M1979 6083 c-13 -16 -12 -17 4 -4 9 7 17 15 17 17 0 8 -8 3 -21 -13z"/>
<path d="M2496 6057 c3 -10 9 -15 12 -12 3 3 0 11 -7 18 -10 9 -11 8 -5 -6z"/>
<path d="M2538 5565 c2 -14 8 -27 12 -30 4 -2 5 7 2 20 -2 14 -8 27 -12 30 -4
2 -5 -7 -2 -20z"/>
<path d="M2561 5475 c1 -19 18 -51 18 -35 0 8 -4 22 -9 30 -5 8 -9 11 -9 5z"/>
<path d="M2582 5400 c0 -14 2 -19 5 -12 2 6 2 18 0 25 -3 6 -5 1 -5 -13z"/>
<path d="M2652 5030 c0 -14 2 -19 5 -12 2 6 2 18 0 25 -3 6 -5 1 -5 -13z"/>
<path d="M2672 4850 c0 -14 2 -19 5 -12 2 6 2 18 0 25 -3 6 -5 1 -5 -13z"/>
<path d="M2683 4735 c0 -22 2 -30 4 -17 2 12 2 30 0 40 -3 9 -5 -1 -4 -23z"/>
<path d="M2682 4670 c0 -14 2 -19 5 -12 2 6 2 18 0 25 -3 6 -5 1 -5 -13z"/>
<path d="M2520 8060 c-10 -6 9 -7 55 -3 39 3 72 7 74 9 10 9 -115 3 -129 -6z"/>
<path d="M2588 8040 c-38 -11 -88 -49 -88 -66 0 -11 8 -10 37 6 21 11 49 20
63 19 14 0 19 -3 13 -6 -15 -5 -17 -41 -4 -62 7 -11 13 -7 26 15 10 16 26 41
36 55 29 43 -10 61 -83 39z"/>
<path d="M2720 8040 c20 -13 33 -13 25 0 -3 6 -14 10 -23 10 -15 0 -15 -2 -2
-10z"/>
<path d="M7020 6568 c-13 -26 -15 -35 -5 -24 8 11 15 24 15 29 0 5 7 4 15 -3
10 -9 15 -9 15 -1 0 6 -4 11 -10 11 -5 0 -7 7 -4 15 13 33 -7 12 -26 -27z"/>
<path d="M8390 4890 l0 -130 98 0 c53 0 114 5 134 10 53 15 88 61 88 115 0
103 -50 135 -213 135 l-107 0 0 -130z"/>
<path d="M5725 4773 c-27 -69 -51 -129 -53 -134 -2 -5 47 -9 108 -9 86 0 111
3 107 13 -21 49 -110 252 -111 253 0 1 -23 -55 -51 -123z"/>
<path d="M8089 3822 c-44 -36 -18 -122 38 -122 30 0 63 34 63 65 0 28 -40 75
-63 75 -8 0 -25 -8 -38 -18z"/>
<path d="M6162 3823 c-50 -42 -24 -123 38 -123 57 0 79 72 35 115 -29 30 -46
31 -73 8z"/>
<path d="M6395 3815 c-30 -30 -31 -54 -4 -89 25 -31 61 -34 89 -6 29 29 26 74
-6 99 -34 27 -50 26 -79 -4z"/>
<path d="M6949 3821 c-32 -26 -22 -33 47 -29 l59 3 -22 23 c-28 27 -53 28 -84
3z"/>
<path d="M7695 3815 c-14 -13 -25 -33 -25 -45 0 -27 43 -70 70 -70 54 0 83 93
38 124 -32 22 -55 20 -83 -9z"/>
<path d="M9103 3815 l-28 -24 63 -1 c66 0 76 9 40 34 -30 22 -42 20 -75 -9z"/>
<path d="M9759 3821 c-32 -26 -22 -33 42 -29 l54 3 -22 23 c-28 27 -44 28 -74
3z"/>
<path d="M7451 3347 c-12 -27 -21 -53 -21 -58 0 -5 18 -9 40 -9 46 0 47 5 20
70 l-18 45 -21 -48z"/>
<path d="M6325 3315 c-14 -13 -25 -33 -25 -43 0 -29 38 -72 64 -72 28 0 66 39
66 69 0 25 -42 71 -65 71 -9 0 -27 -11 -40 -25z"/>
<path d="M6801 3314 c-12 -15 -21 -34 -21 -44 0 -28 39 -70 66 -70 33 0 64 34
64 70 0 64 -71 92 -109 44z"/>
<path d="M8493 3314 c-20 -20 -24 -32 -19 -56 12 -60 70 -77 106 -31 25 32 20
69 -12 96 -28 23 -44 22 -75 -9z"/>
<path d="M8935 3246 c-28 -20 -12 -46 28 -46 37 0 57 15 57 42 0 14 -8 18 -33
18 -18 0 -42 -6 -52 -14z"/>
<path d="M9451 3322 c-46 -37 -18 -122 40 -122 56 0 78 83 33 119 -33 26 -45
26 -73 3z"/>
<path d="M4585 2864 c-22 -8 -45 -16 -52 -19 -15 -5 21 -92 46 -113 10 -8 10
-11 2 -6 -11 5 -13 3 -8 -10 4 -10 7 -22 7 -27 0 -6 5 -7 10 -4 6 4 8 11 5 16
-4 5 -1 9 4 9 6 0 11 -5 11 -11 0 -7 17 -9 52 -5 29 4 53 8 54 9 1 1 -6 20
-16 42 -11 22 -19 46 -20 53 0 6 -5 12 -11 12 -5 0 -8 -4 -4 -9 3 -5 2 -12 -3
-15 -12 -7 -11 27 0 35 12 8 -12 59 -26 58 -6 -1 -29 -8 -51 -15z m20 -78 c0
-13 -2 -22 -4 -20 -2 2 -10 -1 -17 -7 -10 -8 -9 -2 2 20 9 17 16 31 17 31 1 0
2 -11 2 -24z m72 -19 c0 -7 -9 -14 -20 -14 -19 -2 -19 -2 -1 12 11 8 19 15 20
15 0 0 1 -6 1 -13z m-47 -21 c0 -2 -7 -7 -16 -10 -8 -3 -12 -2 -9 4 6 10 25
14 25 6z m59 -19 c8 -10 7 -14 -4 -14 -8 0 -15 4 -15 8 0 5 -8 6 -17 3 -15 -5
-16 -4 -3 5 20 14 25 14 39 -2z m-55 -13 c3 -8 2 -12 -4 -9 -6 3 -10 10 -10
16 0 14 7 11 14 -7z"/>
</g>
</svg>
